<?xml version="1.0" encoding="UTF-8"?>
<svg version="1.1" xmlns="http://www.w3.org/2000/svg" width="700" height="608">
<path d="M0 0 C1.06237885 -0.00686325 2.12475769 -0.0137265 3.21932983 -0.02079773 C6.7298521 -0.03909291 10.23992858 -0.03522384 13.75048828 -0.02954102 C16.19280137 -0.03410183 18.63511317 -0.0394071 21.0774231 -0.04542542 C26.19685071 -0.05436214 31.31612238 -0.05192727 36.43554688 -0.04199219 C42.99166281 -0.03050806 49.54723972 -0.0507033 56.10328484 -0.07990932 C61.14766859 -0.09826896 66.19192316 -0.09797917 71.23633194 -0.0922718 C73.65321737 -0.09211853 76.07011153 -0.09816791 78.48696518 -0.11056328 C81.86925653 -0.12546447 85.250552 -0.114801 88.6328125 -0.09765625 C89.62837158 -0.10732422 90.62393066 -0.11699219 91.6496582 -0.12695312 C97.4613475 -0.06536283 101.9958271 0.42519671 106.44580078 4.40405273 C108.47489853 6.84871442 110.14486745 9.48337614 111.87084961 12.14648438 C121.12235229 25.05225194 132.00811231 37.45526499 148.37054443 40.25921631 C168.39507626 43.18045382 189.16214906 41.926738 209.30623734 41.12871802 C218.92508931 40.75374143 228.5458858 40.59728638 238.17041016 40.44506836 C241.55705904 40.39076184 244.94368109 40.33515192 248.33027649 40.27760315 C249.15024496 40.26372419 249.97021344 40.24984523 250.81502944 40.23554569 C256.43039644 40.13433544 262.04190507 39.97214079 267.654953 39.78379822 C269.87521085 39.71507121 272.09550067 39.64749586 274.31580544 39.58030319 C275.69828553 39.53494625 277.08059316 39.48390616 278.46263123 39.42664146 C287.37070026 39.05767906 293.14321979 39.07602965 300.3527832 44.65258789 C304.23262315 49.84112803 303.04911801 57.2548766 302.93408203 63.42749023 C302.92474725 64.89863886 302.91763428 66.36980312 302.91264343 67.8409729 C302.89362534 71.69813554 302.84457161 75.5543448 302.78912354 79.41113281 C302.73781754 83.35265203 302.71510534 87.29432652 302.68994141 91.23608398 C302.63644584 98.95917313 302.55119856 106.68147894 302.44580078 114.40405273 C303.3074585 114.37263184 303.3074585 114.37263184 304.18652344 114.34057617 C306.81443452 114.25691509 309.44206468 114.20523814 312.07080078 114.15405273 C312.97443359 114.12053711 313.87806641 114.08702148 314.80908203 114.05249023 C321.88395041 113.94920748 325.06827275 115.25945767 330.25830078 120.09155273 C334.49490667 128.34178526 331.64280164 138.20281049 330.12841797 146.86279297 C329.86639106 148.41420331 329.60542848 149.96579373 329.34544373 151.51754761 C328.63949583 155.71167038 327.91829434 159.90303666 327.19390392 164.09400821 C326.4358079 168.49351053 325.69073285 172.89521911 324.94390869 177.29664612 C323.68779338 184.6878237 322.42216989 192.07732277 321.15039062 199.46582031 C319.68346524 207.98847165 318.22951294 216.51325402 316.78299403 225.03939098 C315.38756964 233.26357686 313.98489794 241.48650863 312.57828522 249.70878792 C311.98148094 253.1974185 311.38681977 256.68640414 310.79384613 260.17568779 C310.09392743 264.29142367 309.38752323 268.40599747 308.67625618 272.51978683 C308.41734318 274.02296387 308.16051351 275.52650159 307.90601158 277.03043175 C304.25220145 298.59765207 304.25220145 298.59765207 299.88330078 302.96655273 C296.05405697 305.22482472 294.02042725 305.52806503 289.54867554 305.52430725 C288.29221725 305.52568192 287.03575897 305.52705658 285.7412262 305.5284729 C284.34115577 305.52493352 282.94108558 305.52129871 281.54101562 305.51757812 C280.07275901 305.51729618 278.60450226 305.51745413 277.13624573 305.51802063 C273.1426776 305.51830831 269.14913931 305.51241631 265.15557814 305.50544667 C260.98487466 305.49920826 256.81417055 305.49860895 252.64346313 305.49742126 C244.74222081 305.49430939 236.84099228 305.48609793 228.93975604 305.47607177 C219.94592862 305.46490618 210.95210055 305.45939906 201.95826793 305.45437634 C183.4541028 305.44391521 164.94995658 305.4255715 146.44580078 305.40405273 C146.44580078 315.63405273 146.44580078 325.86405273 146.44580078 336.40405273 C148.75580078 336.73405273 151.06580078 337.06405273 153.44580078 337.40405273 C160.8670363 340.4918168 167.04762098 346.89037615 170.38330078 354.15405273 C171.44580078 357.40405273 171.44580078 357.40405273 171.44580078 361.40405273 C172.85635223 361.39990467 172.85635223 361.39990467 174.29539967 361.3956728 C197.15393706 361.32913763 220.01246193 361.27980568 242.87107563 361.24861622 C253.92523447 361.23313316 264.97932942 361.21201621 276.03344727 361.17773438 C285.6658001 361.14787601 295.29810668 361.1284882 304.9305045 361.12178725 C310.03298014 361.11786894 315.13532342 361.1086306 320.23775673 361.08686256 C325.03689182 361.06655366 329.8358396 361.06020756 334.63501358 361.06472969 C336.39951405 361.06390198 338.16402056 361.05790309 339.92848396 361.04643631 C342.33177187 361.0315795 344.7343462 361.03507381 347.13764954 361.04328918 C347.84095455 361.03455066 348.54425956 361.02581214 349.26887685 361.01680881 C352.11406838 361.04322135 354.00605555 361.09862944 356.38001251 362.74745178 C358.07129444 365.37628468 357.8040446 367.71138396 357.78637695 370.80322266 C357.78681503 371.44739639 357.78725311 372.09157013 357.78770447 372.75526428 C357.78561637 374.88199294 357.76228591 377.00793075 357.73876953 379.13452148 C357.73317361 380.60996571 357.72890349 382.08541552 357.72590637 383.56086731 C357.71445715 387.44244807 357.68498965 391.32369157 357.65179443 395.20513916 C357.62109502 399.16657956 357.60740133 403.12807451 357.59228516 407.08959961 C357.56011972 414.86123767 357.50892283 422.63259793 357.44580078 430.40405273 C358.19807953 430.4644574 358.95035828 430.52486206 359.72543335 430.58709717 C361.20809189 430.71256927 361.20809189 430.71256927 362.72070312 430.84057617 C363.69985687 430.92160583 364.67901062 431.0026355 365.68783569 431.08612061 C380.68950405 432.81547983 396.27447465 443.6292269 405.72314453 455.02124023 C418.03987926 472.05799349 422.83943894 490.71146608 420.16162109 511.62329102 C417.31889702 527.25827344 409.61330477 539.55182746 398.44580078 550.40405273 C397.81544922 551.02022461 397.18509766 551.63639648 396.53564453 552.27124023 C382.25777465 565.30021842 363.6655414 569.34202456 344.82080078 568.58325195 C330.06636689 567.46999594 316.47209653 561.1272408 305.44580078 551.40405273 C304.32044922 550.41985352 304.32044922 550.41985352 303.17236328 549.41577148 C290.82285795 537.88816156 282.89327961 521.70026089 282.20751953 504.75170898 C281.73449057 482.3348027 287.87929782 464.8803409 303.42626953 448.29077148 C315.13515537 436.97730768 331.25457071 430.40405273 347.44580078 430.40405273 C347.44580078 410.93405273 347.44580078 391.46405273 347.44580078 371.40405273 C289.36580078 371.40405273 231.28580078 371.40405273 171.44580078 371.40405273 C171.11580078 373.71405273 170.78580078 376.02405273 170.44580078 378.40405273 C167.87282284 384.58803406 163.03803253 389.80721149 157.44580078 393.40405273 C152.49580078 395.38405273 152.49580078 395.38405273 147.44580078 397.40405273 C147.11580078 408.29405273 146.78580078 419.18405273 146.44580078 430.40405273 C148.75580078 430.40405273 151.06580078 430.40405273 153.44580078 430.40405273 C156.11099287 431.02373732 158.60747623 431.68571922 161.19580078 432.52905273 C161.89463379 432.75423584 162.5934668 432.97941895 163.31347656 433.21142578 C182.17749034 439.53483743 195.57207957 452.12823863 204.58837891 469.61254883 C211.6982693 484.46800887 213.04063314 503.36835558 208.60205078 519.23217773 C204.06913086 531.66707967 197.9961093 541.25646807 188.44580078 550.40405273 C187.81673828 551.01764648 187.18767578 551.63124023 186.53955078 552.26342773 C172.28287738 565.30962886 153.65366168 569.34154623 134.82080078 568.58325195 C120.06636689 567.46999594 106.47209653 561.1272408 95.44580078 551.40405273 C94.69556641 550.74791992 93.94533203 550.09178711 93.17236328 549.41577148 C80.82285795 537.88816156 72.89327961 521.70026089 72.20751953 504.75170898 C71.73449057 482.3348027 77.87929782 464.8803409 93.42626953 448.29077148 C104.76473907 437.33521461 120.73819319 430.40405273 136.44580078 430.40405273 C136.11580078 419.51405273 135.78580078 408.62405273 135.44580078 397.40405273 C132.14580078 396.08405273 128.84580078 394.76405273 125.44580078 393.40405273 C119.85356903 389.80721149 115.01877873 384.58803406 112.44580078 378.40405273 C112.11580078 376.09405273 111.78580078 373.78405273 111.44580078 371.40405273 C53.36580078 371.40405273 -4.71419922 371.40405273 -64.55419922 371.40405273 C-64.55419922 390.87405273 -64.55419922 410.34405273 -64.55419922 430.40405273 C-62.24419922 430.40405273 -59.93419922 430.40405273 -57.55419922 430.40405273 C-39.9031729 433.56865768 -23.1936638 442.68733302 -12.55419922 457.40405273 C-1.45227315 474.57111422 3.51498683 493.17977945 -0.20263672 513.62670898 C-3.86725788 528.52010526 -10.71110214 539.86707578 -21.55419922 550.40405273 C-22.18455078 551.02022461 -22.81490234 551.63639648 -23.46435547 552.27124023 C-37.74222535 565.30021842 -56.3344586 569.34202456 -75.17919922 568.58325195 C-89.93363311 567.46999594 -103.52790347 561.1272408 -114.55419922 551.40405273 C-115.67955078 550.41985352 -115.67955078 550.41985352 -116.82763672 549.41577148 C-129.17714205 537.88816156 -137.10672039 521.70026089 -137.79248047 504.75170898 C-138.26550943 482.3348027 -132.12070218 464.8803409 -116.57373047 448.29077148 C-105.74723166 437.82989553 -89.68560113 430.20386359 -74.55419922 430.40405273 C-74.56086105 429.58386154 -74.56752289 428.76367035 -74.5743866 427.91862488 C-74.634468 420.19360141 -74.68015834 412.46869103 -74.70963573 404.74349499 C-74.72529978 400.77176646 -74.74655121 396.8002308 -74.78051758 392.82861328 C-74.81308518 388.99662184 -74.83104667 385.16481605 -74.83883095 381.33269691 C-74.84437918 379.86982614 -74.85521347 378.40696567 -74.87138939 376.94417381 C-74.89313001 374.89696578 -74.89616769 372.85052733 -74.89477539 370.80322266 C-74.90143723 369.63740158 -74.90809906 368.47158051 -74.91496277 367.27043152 C-74.55419922 364.40405273 -74.55419922 364.40405273 -73.48841095 362.74745178 C-70.5770039 360.72534562 -67.66429502 361.00081766 -64.24604797 361.04328918 C-63.12126794 361.03944427 -63.12126794 361.03944427 -61.97376508 361.03552169 C-59.4538916 361.0305689 -56.93461346 361.04710093 -54.41479492 361.06347656 C-52.61141982 361.06432251 -50.80804369 361.06384832 -49.00466919 361.06214905 C-44.10202059 361.06128642 -39.19959107 361.07895542 -34.29699349 361.09987092 C-29.17604949 361.1185932 -24.05510076 361.12038465 -18.93412781 361.12394714 C-9.2337457 361.13328071 0.46653528 361.15791222 10.1668728 361.18799561 C21.20903969 361.22149885 32.25121134 361.23801537 43.29341638 361.25308192 C66.01093397 361.28446063 88.72836172 361.3372466 111.44580078 361.40405273 C111.59202881 360.29416992 111.73825684 359.18428711 111.88891602 358.04077148 C113.03581287 350.55099704 117.68426383 345.59684176 123.39111328 340.88061523 C127.61244275 337.84703626 131.15405517 336.40405273 136.44580078 336.40405273 C136.44580078 326.17405273 136.44580078 315.94405273 136.44580078 305.40405273 C129.72245361 305.43547363 129.72245361 305.43547363 122.86328125 305.4675293 C108.06726289 305.53375717 93.27123876 305.57817508 78.47511101 305.61130142 C69.50269896 305.63192341 60.53042736 305.66003703 51.55810547 305.70581055 C43.73748338 305.74568948 35.91696301 305.77148819 28.09624207 305.78040671 C23.95549115 305.7856197 19.81503124 305.79786434 15.67437363 305.82697296 C11.77556153 305.8541589 7.87715983 305.86249141 3.97826195 305.85648346 C2.5488086 305.85758229 1.11934129 305.8655176 -0.31002998 305.88087463 C-12.4465841 306.00485318 -12.4465841 306.00485318 -16.26412964 303.68817139 C-20.53724557 299.42615948 -21.97697405 295.49994057 -22.98468018 289.5993042 C-23.10228848 288.92759603 -23.21989679 288.25588786 -23.34106898 287.56382489 C-23.73097671 285.32172777 -24.10595411 283.07739796 -24.48095703 280.83276367 C-24.75801991 279.22088555 -25.03596603 277.60915904 -25.31472778 275.99757385 C-26.06813414 271.62508181 -26.80824799 267.25043717 -27.54532719 262.87516689 C-28.16251938 259.21909571 -28.78627599 255.56415738 -29.41005778 251.90920568 C-30.88221504 243.28292572 -32.34372605 234.65488905 -33.79833984 226.02563477 C-35.29732605 217.13411048 -36.81276986 208.24550617 -38.33663678 199.35821509 C-39.64587162 191.7196371 -40.94551074 184.07946991 -42.23737597 176.43793511 C-43.00836843 171.87774533 -43.78277809 167.31820711 -44.56613922 162.76012421 C-45.3028164 158.47083027 -46.02741342 154.17966321 -46.74294662 149.88679314 C-47.00677753 148.31598912 -47.2747478 146.74587358 -47.54726791 145.17655373 C-50.81765836 126.30833863 -50.81765836 126.30833863 -47.51622391 120.61362839 C-45.24089663 117.67320974 -42.97549299 115.77272711 -39.55419922 114.40405273 C-37.26416016 114.17700195 -37.26416016 114.17700195 -34.78857422 114.20874023 C-33.89912109 114.21518555 -33.00966797 114.22163086 -32.09326172 114.22827148 C-30.71267578 114.2534082 -30.71267578 114.2534082 -29.30419922 114.27905273 C-27.90041016 114.29258789 -27.90041016 114.29258789 -26.46826172 114.30639648 C-24.16331265 114.32991637 -21.85888762 114.36278421 -19.55419922 114.40405273 C-19.56308167 113.10192841 -19.57196411 111.79980408 -19.58111572 110.45822144 C-19.66220283 98.18687381 -19.72216543 85.91558055 -19.76144791 73.6440258 C-19.78232236 67.33508005 -19.81063812 61.02635058 -19.85595703 54.7175293 C-19.89941878 48.62914021 -19.92333739 42.54095916 -19.93370819 36.45242691 C-19.94109888 34.12958628 -19.95553109 31.80675704 -19.97711945 29.48400497 C-20.0061569 26.23037867 -20.01015495 22.97761199 -20.00830078 19.72387695 C-20.02268188 18.76362106 -20.03706299 17.80336517 -20.05187988 16.81401062 C-20.0172205 11.19319167 -19.46778987 7.76037074 -15.55419922 3.40405273 C-11.00455411 -0.62189533 -5.75836496 -0.02593231 0 0 Z M-9.55419922 12.40405273 C-9.55419922 46.06405273 -9.55419922 79.72405273 -9.55419922 114.40405273 C90.10580078 114.40405273 189.76580078 114.40405273 292.44580078 114.40405273 C292.44580078 93.61405273 292.44580078 72.82405273 292.44580078 51.40405273 C290.67053193 49.62878388 288.08789066 50.27163217 285.68479919 50.26602173 C284.4328627 50.26056839 283.18092621 50.25511505 281.89105225 50.24949646 C280.49060064 50.24837652 279.09014897 50.24732602 277.68969727 50.24633789 C276.22471463 50.24167198 274.75973344 50.23652879 273.29475403 50.23094177 C270.13157219 50.21963941 266.9683999 50.21121537 263.80520439 50.20482254 C258.79995575 50.19415845 253.7947751 50.17391577 248.78956604 50.15170288 C234.55350881 50.08973198 220.31745446 50.03582324 206.08129883 50.00268555 C198.22506119 49.98431788 190.36893636 49.9553505 182.51278168 49.91468084 C178.35531392 49.89363793 174.19798821 49.87815752 170.0404644 49.87587357 C166.12437634 49.87371995 162.20858344 49.85777824 158.29258537 49.83148384 C156.85917287 49.82431507 155.4257245 49.82217808 153.99229813 49.82558632 C136.96951126 49.85957958 136.96951126 49.85957958 131.76560497 44.75636864 C129.9915155 42.66912461 128.3517543 40.51220566 126.70996094 38.31958008 C115.29378687 24.17653325 103.65959228 9.84321478 84.69482422 7.4128418 C71.95499601 6.23189204 59.15421744 6.96751612 46.41644287 7.81555176 C40.34470937 8.17607736 34.26768123 8.30972892 28.18798828 8.47045898 C19.36528881 8.73794891 10.55138322 9.07592122 1.74023438 9.60571289 C0.36311531 9.67976349 0.36311531 9.67976349 -1.04182434 9.75531006 C-1.87603409 9.81008514 -2.71024384 9.86486023 -3.56973267 9.92129517 C-4.29543772 9.96620905 -5.02114277 10.01112293 -5.76883888 10.05739784 C-7.80262512 10.27956882 -7.80262512 10.27956882 -9.55419922 12.40405273 Z M-38.42688376 125.75714707 C-40.24303787 128.41038354 -39.45894239 130.44228373 -38.91259766 133.54296875 C-38.80476204 134.18411306 -38.69692642 134.82525738 -38.58582306 135.48583031 C-38.21084287 137.69205998 -37.81175911 139.89330734 -37.41357422 142.09545898 C-37.13400868 143.71443187 -36.85622275 145.33371285 -36.58001709 146.95326233 C-35.94641286 150.65582327 -35.30339138 154.35661188 -34.65551758 158.05670166 C-33.44059015 165.02354364 -32.27424711 171.99827395 -31.11083984 178.97387695 C-30.67370609 181.59306173 -30.2365259 184.21223864 -29.79919434 186.83139038 C-29.6885743 187.49395722 -29.57795426 188.15652405 -29.46398211 188.83916867 C-27.97162501 197.77185203 -26.46090812 206.70143739 -24.95137787 215.63123131 C-24.71399772 217.03556582 -24.47662438 218.43990148 -24.23925781 219.84423828 C-24.12139624 220.54150642 -24.00353467 221.23877456 -23.88210154 221.95717204 C-22.91277521 227.6939272 -21.94807167 233.43145375 -20.98414826 239.16911882 C-20.0421435 244.77472813 -19.09647645 250.37971201 -18.14804626 255.98423773 C-17.58681901 259.30120552 -17.02761273 262.61848097 -16.47138214 265.93629265 C-15.856663 269.60071846 -15.23596187 273.26408287 -14.61376953 276.92724609 C-14.43402084 278.00703735 -14.25427216 279.08682861 -14.06907654 280.19934082 C-13.158992 288.39477769 -13.158992 288.39477769 -9.55419922 295.40405273 C-7.94536188 295.50292787 -6.3321644 295.53144754 -4.72029209 295.53268719 C-3.66754898 295.53591163 -2.61480586 295.53913608 -1.53016144 295.54245824 C0.22602252 295.54013533 0.22602252 295.54013533 2.01768494 295.5377655 C3.8666991 295.54116384 3.8666991 295.54116384 5.75306708 295.54463083 C9.19023901 295.54988943 12.6273589 295.55061174 16.06453121 295.54943645 C19.76534014 295.54923319 23.46614113 295.55474398 27.16694641 295.55949402 C34.42328576 295.56781745 41.67961698 295.57054962 48.9359607 295.5711064 C54.83123066 295.57158075 60.72649793 295.57363145 66.62176704 295.57680702 C83.31766251 295.58561816 100.01355154 295.59022567 116.70944934 295.58947655 C117.61043116 295.58943659 118.51141297 295.58939664 119.43969727 295.58935547 C120.3417728 295.58931459 121.24384834 295.58927371 122.1732595 295.58923159 C136.7991387 295.58882497 151.42499216 295.59839729 166.05086391 295.61249384 C181.05069167 295.62683731 196.05050687 295.63376514 211.05034167 295.63290006 C219.47881789 295.63256739 227.90726716 295.63534498 236.33573723 295.64607811 C243.51103286 295.65515648 250.6862893 295.65738041 257.86158817 295.65056869 C261.52557745 295.64728995 265.18949142 295.64729517 268.85347366 295.65592194 C272.81799556 295.66516068 276.78240583 295.65904631 280.74693298 295.65129089 C282.49977086 295.65900624 282.49977086 295.65900624 284.2880196 295.66687745 C285.87104589 295.65997925 285.87104589 295.65997925 287.48605251 295.6529417 C288.86020672 295.65326776 288.86020672 295.65326776 290.26212162 295.65360039 C292.65513291 295.60955372 292.65513291 295.60955372 294.44580078 293.40405273 C295.01474354 291.5166059 295.01474354 291.5166059 295.34706116 289.30619812 C295.49667297 288.44607117 295.64628479 287.58594421 295.8004303 286.69975281 C295.95676437 285.75227676 296.11309845 284.80480072 296.27416992 283.82861328 C296.44532318 282.83080841 296.61647644 281.83300354 296.79281616 280.80496216 C297.36318841 277.46815289 297.92203712 274.1295166 298.48095703 270.79077148 C298.88182254 268.43183182 299.28340124 266.07301325 299.68565369 263.71430969 C300.752956 257.44427475 301.81057381 251.17264276 302.86621094 244.90063477 C303.90469565 238.74001175 304.95185552 232.58086591 305.99853516 226.42163086 C307.2414588 219.10502063 308.4823702 211.78809012 309.7147522 204.46969604 C311.60201869 193.26482826 313.49853059 182.06199114 315.44566822 170.86734676 C316.30600869 165.92037951 317.16081769 160.97246248 318.01550102 156.02451515 C318.42198162 153.68159479 318.83136178 151.33917547 319.24376106 148.99728966 C319.81112347 145.77446986 320.36864322 142.55008969 320.92407227 139.32519531 C321.09452246 138.37299669 321.26497265 137.42079807 321.440588 136.43974495 C321.58917574 135.56601171 321.73776348 134.69227848 321.89085388 133.79206848 C322.02298499 133.03642514 322.1551161 132.2807818 322.29125118 131.50224018 C322.46090741 129.19896293 322.24434372 127.56871526 321.44580078 125.40405273 C318.75024021 124.05627245 316.66814136 124.27611341 313.64830112 124.27262497 C311.78496989 124.26686325 311.78496989 124.26686325 309.88399559 124.26098514 C308.49277781 124.26176547 307.10156008 124.26264427 305.71034241 124.26361084 C304.24232465 124.2610287 302.77430759 124.25801596 301.30629152 124.25460744 C297.25763827 124.2465166 293.20900272 124.24474671 289.16034234 124.24400997 C284.79967465 124.24216306 280.43901623 124.23461764 276.07835388 124.22787476 C266.53725412 124.21427678 256.99615855 124.20826462 247.45505071 124.2038641 C241.50205537 124.20110451 235.54906166 124.19686772 229.59606743 124.19235992 C213.12640135 124.18016604 196.65673658 124.16986651 180.18706608 124.16648483 C178.60509906 124.16615548 178.60509906 124.16615548 176.99117311 124.16581948 C175.40534476 124.16549206 175.40534476 124.16549206 173.78747946 124.16515803 C171.64502211 124.16471456 169.50256477 124.164268 167.36010742 124.16381836 C165.76599604 124.16348621 165.76599604 124.16348621 164.13968038 124.16314736 C146.9085217 124.15919695 129.67740526 124.14173607 112.4462629 124.11845884 C94.77165945 124.09477446 77.09707722 124.08228434 59.42245764 124.08111691 C49.49215136 124.08019858 39.56190012 124.07440657 29.63160896 124.0562973 C21.17799668 124.04093566 12.72445643 124.03575251 4.27083284 124.0440354 C-0.04544995 124.04795576 -4.36158749 124.04694524 -8.67785263 124.03297806 C-12.62496731 124.02032172 -16.57182637 124.02136307 -20.51894028 124.03356877 C-21.95095911 124.03554021 -23.38299554 124.03238129 -24.81498956 124.02372441 C-26.75358342 124.01274194 -28.69226061 124.02185343 -30.63085842 124.03211594 C-31.71007862 124.03151885 -32.78929881 124.03092176 -33.90122265 124.03030658 C-36.57355915 124.19625439 -36.57355915 124.19625439 -38.42688376 125.75714707 Z M125.44580078 352.40405273 C122.2976904 357.30014705 119.53380176 362.36966653 119.95751953 368.32592773 C121.2610779 373.87387214 123.85561802 378.77202306 127.82080078 382.84155273 C133.48384857 386.21241451 138.76006772 388.68379055 145.44580078 387.40405273 C153.09738537 384.5996258 157.42702786 381.29740051 161.19580078 374.02905273 C163.31238941 367.89094571 162.80167558 363.13017841 160.35205078 357.25561523 C157.74663302 351.93247721 153.96400683 348.53775907 148.44580078 346.40405273 C139.76916337 344.32335828 131.74029912 345.76931124 125.44580078 352.40405273 Z M-114.52294922 461.52514648 C-125.53715559 474.68905541 -128.59153733 489.55817934 -127.75830078 506.2019043 C-126.98786601 514.51448998 -123.52744664 522.16706635 -119.55419922 529.40405273 C-116.86377482 526.97944871 -115.24887075 524.33285012 -113.42919922 521.21655273 C-106.89383326 510.88250531 -98.2521475 505.69515544 -87.55419922 500.40405273 C-87.95251953 499.9309668 -88.35083984 499.45788086 -88.76123047 498.97045898 C-94.68440584 491.57729848 -97.2085338 484.70727982 -96.90185547 475.17358398 C-95.93571668 467.47704012 -92.47464049 460.47486348 -86.55419922 455.40405273 C-78.48660245 450.38285399 -70.96948647 449.66559883 -61.55419922 450.40405273 C-54.95798416 452.15290514 -48.92093617 455.82508466 -45.11279297 461.58374023 C-40.6080257 469.41253805 -38.88346236 477.13878952 -41.27294922 486.09936523 C-43.31309938 491.47943865 -46.016453 495.88359923 -49.55419922 500.40405273 C-48.72017578 500.81655273 -47.88615234 501.22905273 -47.02685547 501.65405273 C-36.07064397 507.27648429 -28.39582751 513.13904196 -22.06201172 523.98608398 C-20.72007141 526.13805562 -19.42731898 527.71600169 -17.55419922 529.40405273 C-9.85507111 515.64908869 -6.93258737 500.23101131 -10.61669922 484.71655273 C-15.88756543 468.58525057 -25.51340695 454.81692242 -40.72998047 446.71264648 C-67.21091967 434.03722576 -94.61589708 440.07766769 -114.52294922 461.52514648 Z M95.47705078 461.52514648 C84.21881076 474.98071844 81.17860303 490.36999064 82.44580078 507.40405273 C83.62452903 515.45255657 86.49017185 522.3370793 90.44580078 529.40405273 C93.13622518 526.97944871 94.75112925 524.33285012 96.57080078 521.21655273 C103.10616674 510.88250531 111.7478525 505.69515544 122.44580078 500.40405273 C122.04748047 499.9309668 121.64916016 499.45788086 121.23876953 498.97045898 C115.31559416 491.57729848 112.7914662 484.70727982 113.09814453 475.17358398 C114.06428332 467.47704012 117.52535951 460.47486348 123.44580078 455.40405273 C131.51339755 450.38285399 139.03051353 449.66559883 148.44580078 450.40405273 C155.04201584 452.15290514 161.07906383 455.82508466 164.88720703 461.58374023 C169.3919743 469.41253805 171.11653764 477.13878952 168.72705078 486.09936523 C166.68690062 491.47943865 163.983547 495.88359923 160.44580078 500.40405273 C161.27982422 500.81655273 162.11384766 501.22905273 162.97314453 501.65405273 C173.92935603 507.27648429 181.60417249 513.13904196 187.93798828 523.98608398 C189.27992859 526.13805562 190.57268102 527.71600169 192.44580078 529.40405273 C200.14492889 515.64908869 203.06741263 500.23101131 199.38330078 484.71655273 C194.11243457 468.58525057 184.48659305 454.81692242 169.27001953 446.71264648 C142.78908033 434.03722576 115.38410292 440.07766769 95.47705078 461.52514648 Z M303.69580078 463.65405273 C293.28840807 477.72740647 290.44950161 493.77307244 292.94580078 510.81811523 C294.46939365 517.51846116 297.09755494 523.42220641 300.44580078 529.40405273 C303.13622518 526.97944871 304.75112925 524.33285012 306.57080078 521.21655273 C313.10616674 510.88250531 321.7478525 505.69515544 332.44580078 500.40405273 C332.04748047 499.9309668 331.64916016 499.45788086 331.23876953 498.97045898 C325.31559416 491.57729848 322.7914662 484.70727982 323.09814453 475.17358398 C324.06428332 467.47704012 327.52535951 460.47486348 333.44580078 455.40405273 C341.51339755 450.38285399 349.03051353 449.66559883 358.44580078 450.40405273 C365.04201584 452.15290514 371.07906383 455.82508466 374.88720703 461.58374023 C379.3919743 469.41253805 381.11653764 477.13878952 378.72705078 486.09936523 C376.68690062 491.47943865 373.983547 495.88359923 370.44580078 500.40405273 C371.27982422 500.81655273 372.11384766 501.22905273 372.97314453 501.65405273 C383.92935603 507.27648429 391.60417249 513.13904196 397.93798828 523.98608398 C399.27992859 526.13805562 400.57268102 527.71600169 402.44580078 529.40405273 C410.14492889 515.64908869 413.06741263 500.23101131 409.38330078 484.71655273 C403.8306777 467.72294348 393.50906238 454.13935156 377.57080078 445.65405273 C350.96800483 433.36648082 322.24077949 441.48954967 303.69580078 463.65405273 Z M-83.36669922 466.34155273 C-87.02151048 471.45828849 -88.09988653 475.07407993 -87.55419922 481.40405273 C-85.49363468 487.69419711 -82.44635866 491.32763057 -77.11669922 495.15405273 C-72.00409754 497.64800477 -67.85492868 497.69105381 -62.50341797 496.11108398 C-57.09427484 494.1490501 -54.37928767 491.57574962 -51.67919922 486.59155273 C-49.42276474 481.60402926 -48.43544897 477.76688437 -50.21826172 472.40795898 C-52.49084184 467.1810247 -55.83222397 463.570296 -60.55419922 460.40405273 C-69.48935553 457.4256673 -77.10788963 459.30039195 -83.36669922 466.34155273 Z M126.63330078 466.34155273 C122.97848952 471.45828849 121.90011347 475.07407993 122.44580078 481.40405273 C124.50316016 487.68441296 127.55493074 491.27393797 132.82080078 495.15405273 C137.77376805 497.51260858 141.85073507 497.8051849 147.07080078 496.27905273 C153.49793505 493.84568951 156.90812374 489.56168351 159.71533203 483.44311523 C161.41569194 478.69665601 160.85761573 474.84572581 158.88330078 470.34155273 C156.08722629 465.20875884 152.01646778 461.26094173 146.44580078 459.40405273 C138.02402363 458.50592615 132.40901253 459.84387702 126.63330078 466.34155273 Z M336.63330078 466.34155273 C332.97848952 471.45828849 331.90011347 475.07407993 332.44580078 481.40405273 C334.50316016 487.68441296 337.55493074 491.27393797 342.82080078 495.15405273 C347.77376805 497.51260858 351.85073507 497.8051849 357.07080078 496.27905273 C363.49793505 493.84568951 366.90812374 489.56168351 369.71533203 483.44311523 C371.41569194 478.69665601 370.85761573 474.84572581 368.88330078 470.34155273 C366.08722629 465.20875884 362.01646778 461.26094173 356.44580078 459.40405273 C348.02402363 458.50592615 342.40901253 459.84387702 336.63330078 466.34155273 Z M-97.55419922 517.40405273 C-98.17037109 517.88229492 -98.78654297 518.36053711 -99.42138672 518.85327148 C-103.52779095 522.47603255 -106.10300577 526.77022663 -108.61669922 531.59155273 C-108.94041504 532.19805664 -109.26413086 532.80456055 -109.59765625 533.42944336 C-111.28338317 536.8671565 -111.28338317 536.8671565 -111.05029297 540.58374023 C-102.57800935 550.89205399 -88.38195899 556.51503332 -75.55419922 558.40405273 C-58.92011814 559.76536206 -44.05428582 555.40698407 -30.82763672 545.32592773 C-29.00142963 543.7384827 -27.24557945 542.13325936 -25.55419922 540.40405273 C-28.66935253 528.84519438 -34.9150955 520.51961428 -44.55419922 513.40405273 C-62.09611169 503.64563785 -81.73966964 505.0470724 -97.55419922 517.40405273 Z M112.44580078 517.40405273 C111.82962891 517.88229492 111.21345703 518.36053711 110.57861328 518.85327148 C106.47220905 522.47603255 103.89699423 526.77022663 101.38330078 531.59155273 C101.05958496 532.19805664 100.73586914 532.80456055 100.40234375 533.42944336 C98.71552636 536.86744466 98.71552636 536.86744466 98.95361328 540.58374023 C107.27796969 550.73858339 121.80608602 556.39354324 134.44580078 558.40405273 C150.76157192 559.7529217 166.10915415 555.08435442 179.24267578 545.32592773 C181.05674288 543.74344367 182.78850478 542.14857484 184.44580078 540.40405273 C181.33064747 528.84519438 175.0849045 520.51961428 165.44580078 513.40405273 C147.90388831 503.64563785 128.26033036 505.0470724 112.44580078 517.40405273 Z M322.44580078 517.40405273 C321.82962891 517.88229492 321.21345703 518.36053711 320.57861328 518.85327148 C316.47220905 522.47603255 313.89699423 526.77022663 311.38330078 531.59155273 C311.05958496 532.19805664 310.73586914 532.80456055 310.40234375 533.42944336 C308.71661683 536.8671565 308.71661683 536.8671565 308.94970703 540.58374023 C317.42097237 550.89081503 331.61863558 556.51727473 344.44580078 558.40405273 C360.77338304 559.72693121 376.0953138 555.09463803 389.24267578 545.32592773 C391.05674288 543.74344367 392.78850478 542.14857484 394.44580078 540.40405273 C391.33064747 528.84519438 385.0849045 520.51961428 375.44580078 513.40405273 C357.90388831 503.64563785 338.26033036 505.0470724 322.44580078 517.40405273 Z " fill="#000000" transform="translate(208.55419921875,15.595947265625)"/>
<path d="M0 0 C15.4497575 12.95511776 22.45043746 31.95481203 24.2265625 51.4921875 C24.88947975 69.39095316 18.17646917 87.74076822 6.33984375 101.07421875 C-5.0142346 113.2718847 -20.53546881 122.99542244 -37.54858398 124.17700195 C-61.63925674 124.72426948 -61.63925674 124.72426948 -73 120 C-74.1653125 119.525625 -75.330625 119.05125 -76.53125 118.5625 C-85.60713769 114.45862035 -92.09886281 109.05587121 -99 102 C-99.66644531 101.36578125 -100.33289063 100.7315625 -101.01953125 100.078125 C-111.22550699 89.66480438 -117.10317584 73.3491866 -118 59 C-118.05285156 58.21625 -118.10570312 57.4325 -118.16015625 56.625 C-118.86032613 36.16786268 -111.11037313 17.67302158 -97.3125 2.75 C-69.44604982 -23.40244234 -29.43375695 -22.79634599 0 0 Z M-55.0390625 -2.1875 C-60.81737049 4.25842126 -65 14.33339922 -65 23 C-53.12 23 -41.24 23 -29 23 C-30.47756259 12.65706187 -34.05128383 2.31669558 -42 -4.875 C-47.74891944 -8.94715127 -50.56518864 -6.31211233 -55.0390625 -2.1875 Z M-27 -3 C-25.5807212 1.32354375 -24.06116161 5.60084412 -22.5 9.875 C-20.70046091 14.88610591 -19.14341988 19.80263691 -18 25 C-17.06800781 25.23074219 -16.13601563 25.46148437 -15.17578125 25.69921875 C-6.49770622 27.91919143 1.70333448 30.58619496 10 34 C5.14562001 18.22326504 -5.24546954 7.83435035 -19.01953125 -0.50390625 C-21.76643313 -1.88275739 -23.97347019 -2.59161428 -27 -3 Z M-90.37109375 11.26953125 C-96.22234956 17.34683855 -101.0214856 24.02765798 -104 32 C-103.67 32.66 -103.34 33.32 -103 34 C-102.05640625 33.60167969 -101.1128125 33.20335937 -100.140625 32.79296875 C-92.2040563 29.498779 -84.43563201 26.79080456 -76 25 C-75.68546875 23.7934375 -75.3709375 22.586875 -75.046875 21.34375 C-74.61503547 19.72904568 -74.1827182 18.11446907 -73.75 16.5 C-73.54503906 15.70851563 -73.34007812 14.91703125 -73.12890625 14.1015625 C-71.65581178 8.65557687 -69.59179794 4.00637893 -67 -1 C-67 -1.66 -67 -2.32 -67 -3 C-75.85131536 -3 -84.39553642 5.39441182 -90.37109375 11.26953125 Z M-67 33 C-72.0352524 43.07050479 -69.62945479 61.13696805 -68 72 C-67.219542 74.12357029 -67.219542 74.12357029 -65.390625 74.61669922 C-62.15735758 75.13510505 -59.02476505 75.1299585 -55.75 75.1328125 C-55.05487305 75.13376923 -54.35974609 75.13472595 -53.64355469 75.13571167 C-52.17773345 75.13639044 -50.71190917 75.1345573 -49.24609375 75.13037109 C-47.00774355 75.12501852 -44.76959399 75.13032629 -42.53125 75.13671875 C-41.10416623 75.13605791 -39.67708258 75.13477664 -38.25 75.1328125 C-36.95578125 75.13168457 -35.6615625 75.13055664 -34.328125 75.12939453 C-30.57088936 74.98873105 -30.57088936 74.98873105 -27 74 C-21.93983643 63.87967286 -24.68582663 45.87032292 -26 35 C-26.495 34.01 -26.495 34.01 -27 33 C-33.66479104 31.93847078 -40.26311111 31.84708471 -47 31.875 C-47.93328125 31.87113281 -48.8665625 31.86726563 -49.828125 31.86328125 C-55.62493817 31.87137736 -61.26906748 32.08721034 -67 33 Z M-16 35 C-16 47.21 -16 59.42 -16 72 C-5.39291744 69.34822936 4.28149468 66.91146795 12 59 C13.71455695 56.10970384 13.71455695 56.10970384 14 53 C11.82303516 47.19476042 6.54799608 43.27399804 1.15625 40.578125 C-4.57599167 38.11731418 -9.87601432 36.53099642 -16 35 Z M-105.6484375 48.53515625 C-107.63267452 50.68570215 -107.93209556 52.08010919 -108 55 C-104.6796889 62.0933919 -98.31951756 65.83977167 -91.1484375 68.48828125 C-84.70567538 70.96724415 -84.70567538 70.96724415 -78 72 C-78 60.12 -78 48.24 -78 36 C-88.60726061 36 -98.08336075 41.48995444 -105.6484375 48.53515625 Z M-104 73 C-100.31631765 87.48915058 -90.29791528 98.58096082 -77.8125 106.375 C-74.30773199 108.3870977 -70.93062993 109.9656237 -67 111 C-68.06793084 107.79126336 -69.14000402 104.58402653 -70.21875 101.37890625 C-70.64585021 100.1067765 -71.07293333 98.83464101 -71.5 97.5625 C-71.71269531 96.93279297 -71.92539062 96.30308594 -72.14453125 95.65429688 C-73.20891748 92.47746314 -74.07066099 89.54795687 -74.58984375 86.2265625 C-75.63167218 82.97911461 -75.63167218 82.97911461 -77.79150391 81.95385742 C-80.19402571 81.08722415 -82.58297496 80.42437976 -85.0625 79.8125 C-86.72154357 79.36618475 -88.37911596 78.91436417 -90.03515625 78.45703125 C-90.85129395 78.23354004 -91.66743164 78.01004883 -92.50830078 77.77978516 C-96.49381361 76.5325063 -100.23897849 74.80254597 -104 73 Z M9 73 C7.948125 73.5775 6.89625 74.155 5.8125 74.75 C1.09604288 77.12083941 -3.79677746 78.58937064 -8.8515625 80.0703125 C-9.89054687 80.37710938 -10.92953125 80.68390625 -12 81 C-13.60101563 81.30357422 -13.60101563 81.30357422 -15.234375 81.61328125 C-18.38018307 82.81824236 -18.38018307 82.81824236 -19.5390625 86.59765625 C-19.92471058 88.07998063 -20.28561157 89.56890518 -20.625 91.0625 C-21.0210789 92.60805114 -21.42209005 94.15234703 -21.828125 95.6953125 C-22.02083984 96.43813477 -22.21355469 97.18095703 -22.41210938 97.94628906 C-23.16252091 100.5677433 -24.19886047 102.98049618 -25.375 105.4375 C-25.91125 106.613125 -26.4475 107.78875 -27 109 C-26.67 109.66 -26.34 110.32 -26 111 C-9.90789878 103.8385937 2.48721339 93.19650208 9.5390625 76.7421875 C10.22964413 74.9083645 10.22964413 74.9083645 9 73 Z M-65 85 C-63.1894846 94.15909536 -63.1894846 94.15909536 -59.75 102.3125 C-59.18796875 103.46363281 -58.6259375 104.61476563 -58.046875 105.80078125 C-55.66899764 109.51734911 -53.56801504 111.43725904 -50 114 C-47 114.83333333 -47 114.83333333 -44 114 C-39.28331849 110.61222479 -36.83691345 107.61092594 -34.25 102.3125 C-33.67765625 101.17425781 -33.1053125 100.03601563 -32.515625 98.86328125 C-30.51489828 94.09596147 -30.51489828 94.09596147 -29 85 C-40.88 85 -52.76 85 -65 85 Z " fill="#000000" transform="translate(397,172)"/>
</svg>
